<svg width="40" height="40" viewBox="0 0 40 40" fill="none" xmlns="http://www.w3.org/2000/svg">
<path d="M23.054 27.614C23.3982 27.7721 23.786 27.8082 24.1535 27.7164C24.521 27.6246 24.8462 27.4104 25.0757 27.109L25.6673 26.334C25.9778 25.92 26.3804 25.584 26.8433 25.3526C27.3061 25.1211 27.8165 25.0007 28.334 25.0007H33.334C34.218 25.0007 35.0659 25.3518 35.691 25.977C36.3161 26.6021 36.6673 27.4499 36.6673 28.334V33.334C36.6673 34.218 36.3161 35.0659 35.691 35.691C35.0659 36.3161 34.218 36.6673 33.334 36.6673C25.3775 36.6673 17.7469 33.5066 12.1208 27.8805C6.49469 22.2544 3.33398 14.6238 3.33398 6.66732C3.33398 5.78326 3.68517 4.93542 4.31029 4.31029C4.93542 3.68517 5.78326 3.33398 6.66732 3.33398H11.6673C12.5514 3.33398 13.3992 3.68517 14.0243 4.31029C14.6495 4.93542 15.0007 5.78326 15.0007 6.66732V11.6673C15.0007 12.1848 14.8802 12.6952 14.6487 13.158C14.4173 13.6209 14.0813 14.0235 13.6673 14.334L12.8873 14.919C12.5813 15.1526 12.3657 15.485 12.277 15.8596C12.1883 16.2342 12.232 16.6279 12.4007 16.974C14.6785 21.6004 18.4247 25.342 23.054 27.614Z" stroke="white" stroke-width="3" stroke-linecap="round" stroke-linejoin="round"/>
</svg>
