<svg width="155" height="27" viewBox="0 0 155 27" fill="none" xmlns="http://www.w3.org/2000/svg">
<path d="M0.00685775 17.0985C0.00685775 15.0965 0.425087 13.3481 1.26155 11.8603C2.09802 10.3725 3.22246 9.26177 4.62799 8.52129C5.97868 7.82195 7.48021 7.47228 9.13943 7.47228H9.56452C11.0386 7.47228 12.4167 7.80823 13.7057 8.47329C15.0427 9.16578 16.0506 10.1737 16.7225 11.4969V0.0332031H19.2456V26.3613H16.7979L16.7225 22.6658C15.9889 23.9754 14.9673 24.9832 13.6577 25.6826C12.3482 26.3819 10.9289 26.7316 9.39311 26.7316C7.61048 26.7316 6.01982 26.3614 4.61428 25.6277C3.20874 24.8941 2.09117 23.7902 1.2547 22.323C0.418235 20.8558 0 19.1142 0 17.1054L0.00685775 17.0985ZM2.52997 17.0985C2.52997 19.3542 3.19503 21.1163 4.51829 22.3984C5.84155 23.6805 7.52135 24.3182 9.54395 24.3182C11.5666 24.3182 13.2532 23.6463 14.5902 22.2956C15.9272 20.9449 16.5991 19.2034 16.5991 17.0642C16.5991 14.9251 15.9272 13.2521 14.5765 11.9014C13.2258 10.5576 11.5528 9.87884 9.55081 9.87884C7.54877 9.87884 5.84841 10.5165 4.52515 11.7917C3.20188 13.067 2.53682 14.8359 2.53682 17.0985H2.52997Z" fill="white"/>
<path d="M25.0885 18.2245V7.72755H27.6116V18.1834C27.6116 20.1237 28.1121 21.6184 29.1063 22.6674C30.1005 23.7164 31.5266 24.2443 33.3778 24.2443C35.229 24.2443 36.6825 23.641 37.8549 22.4274C39.0205 21.2207 39.6033 19.6986 39.6033 17.868V7.7207H42.051V26.3561H39.7473L39.6718 23.2228C38.9245 24.3883 37.9783 25.2591 36.8333 25.8281C35.6883 26.3972 34.4405 26.6989 33.0761 26.7195C30.649 26.7195 28.7086 25.9584 27.2551 24.4295C25.8016 22.9005 25.0817 20.8299 25.0817 18.2177L25.0885 18.2245Z" fill="white"/>
<path d="M58.6782 12.7106C57.355 11.4696 55.8534 11.0513 54.0777 11.0513C51.8905 11.0513 50.6838 11.7301 50.6838 12.8957C50.6838 14.0612 51.7808 14.7811 54.1531 14.932C57.6566 15.1582 62.1064 15.9467 62.1064 20.8901C62.1064 24.1674 59.4324 26.9991 54.1119 26.9991C51.1706 26.9991 48.2292 26.5123 45.5142 23.6806L47.7767 20.4033C49.0931 21.8706 52.1099 22.9675 54.1874 23.0018C55.922 23.043 57.5401 22.1379 57.5401 20.7804C57.5401 19.4983 56.4842 18.9703 53.8445 18.8195C50.341 18.5589 46.1518 17.2768 46.1518 13.0534C46.1518 8.8299 50.6015 7.24609 53.9954 7.24609C56.8956 7.24609 59.0827 7.81515 61.2356 9.69377L58.6714 12.7106H58.6782Z" fill="white"/>
<path d="M71.532 2.5293V7.80863H76.6605V11.7647H71.4977V19.7934C71.4977 21.5623 72.4782 22.4331 73.9111 22.4331C74.6242 22.4331 75.4538 22.2068 76.1325 21.8709L77.4147 25.7927C76.0983 26.3206 75.0013 26.5469 73.6094 26.5811C69.5779 26.732 66.9383 24.4351 66.9383 19.7934V11.7647H63.469V7.80863H66.9383V3.02295L71.5388 2.53614L71.532 2.5293Z" fill="white"/>
<path d="M94.837 7.76822H99.2455V26.3556H94.9124L94.6861 23.6405C93.6302 25.8277 90.73 26.8836 88.6526 26.9179C83.147 26.959 79.0743 23.5651 79.0743 17.0379C79.0743 10.5108 83.3321 7.27458 88.7623 7.30886C91.2511 7.30886 93.6234 8.47443 94.6792 10.3256L94.8301 7.76138L94.837 7.76822ZM83.6749 17.0448C83.6749 20.5895 86.1226 22.7012 89.1805 22.7012C96.4208 22.7012 96.4208 11.4295 89.1805 11.4295C86.1226 11.4295 83.6749 13.5001 83.6749 17.0448Z" fill="white"/>
<path d="M119.5 23.9823C117.354 26.094 115.092 26.9236 112.335 26.9236C106.946 26.9236 102.455 23.6806 102.455 17.0848C102.455 10.4891 106.939 7.24609 112.335 7.24609C114.975 7.24609 117.011 8.00027 119.048 9.99545L116.147 13.0465C115.05 12.0661 113.693 11.5793 112.418 11.5793C109.325 11.5793 107.063 13.8418 107.063 17.0848C107.063 20.6295 109.476 22.515 112.342 22.515C113.809 22.515 115.284 22.0968 116.415 20.9724L119.507 23.9891L119.5 23.9823Z" fill="white"/>
<path d="M126.02 0H121.419V26.3556H126.02V0Z" fill="white"/>
<path d="M136.69 5.25781L126.021 15.9262L136.69 26.5946L139.953 23.331L132.548 15.9262L139.953 8.52141L136.69 5.25781Z" fill="white"/>
<path d="M140.636 8.52141L148.041 15.9262L140.636 23.331L143.9 26.5946L154.568 15.9262L143.9 5.25781L140.636 8.52141Z" fill="#2BACE2"/>
<path d="M143.899 5.25869L140.636 8.52148L148.039 15.9246L151.302 12.6618L143.899 5.25869Z" fill="url(#paint0_linear_1868_5360)"/>
<defs>
<linearGradient id="paint0_linear_1868_5360" x1="142.18" y1="6.80673" x2="149.407" y2="14.0333" gradientUnits="userSpaceOnUse">
<stop offset="0.42" stop-color="#2BACE2"/>
<stop offset="1" stop-color="#066197"/>
</linearGradient>
</defs>
</svg>
