<svg width="184" height="32" viewBox="0 0 184 32" fill="none" xmlns="http://www.w3.org/2000/svg">
<path d="M0 20.2508C0 17.8744 0.494664 15.809 1.48399 14.0446C2.47331 12.2801 3.80431 10.9644 5.47699 10.0924C7.07827 9.26112 8.85803 8.84805 10.8214 8.84805H11.3211C13.0652 8.84805 14.7022 9.24582 16.227 10.0363C17.813 10.8573 19.0012 12.0506 19.8018 13.6213V0.0410156H22.7902V31.2252H19.8885L19.8018 26.8446C18.9298 28.4 17.7212 29.5882 16.1709 30.4194C14.6206 31.2456 12.9377 31.6586 11.1223 31.6586C9.01612 31.6586 7.12926 31.2252 5.46168 30.3531C3.79921 29.4811 2.46821 28.1756 1.48399 26.4366C0.494664 24.6976 0 22.6374 0 20.2559V20.2508ZM2.98837 20.2508C2.98837 22.9179 3.77371 25.0087 5.34439 26.5284C6.91507 28.043 8.89882 28.8028 11.2956 28.8028C13.6925 28.8028 15.6864 28.0073 17.2724 26.4111C18.8584 24.8149 19.6488 22.7496 19.6488 20.21C19.6488 17.6704 18.8482 15.6917 17.252 14.0955C15.6507 12.4994 13.667 11.7038 11.3007 11.7038C8.93453 11.7038 6.91508 12.4586 5.3495 13.9681C3.77882 15.4775 2.99347 17.5735 2.99347 20.2559L2.98837 20.2508Z" fill="#2C323F"/>
<path d="M29.7004 21.5762V9.14844H32.6888V21.5354C32.6888 23.8302 33.2752 25.6049 34.4532 26.8441C35.6313 28.0884 37.3192 28.7106 39.5121 28.7106C41.7049 28.7106 43.4286 27.9966 44.8106 26.5636C46.1926 25.1306 46.881 23.3305 46.881 21.1682V9.15353H49.7827V31.2196H47.0544L46.9677 27.5121C46.0804 28.8941 44.9636 29.9243 43.6071 30.5974C42.2557 31.2757 40.7717 31.6275 39.1602 31.653C36.284 31.653 33.9841 30.7504 32.2706 28.94C30.5571 27.1297 29.6953 24.6768 29.6953 21.5813L29.7004 21.5762Z" fill="#2C323F"/>
<path d="M69.4823 15.0488C67.9167 13.575 66.1319 13.0854 64.0359 13.0854C61.4453 13.0854 60.0174 13.8912 60.0174 15.2732C60.0174 16.6552 61.3127 17.5068 64.1277 17.6853C68.2788 17.9556 73.5518 18.8888 73.5518 24.7431C73.5518 28.629 70.3799 31.9795 64.0869 31.9795C60.6039 31.9795 57.1209 31.3981 53.903 28.0477L56.5803 24.1618C58.1408 25.9059 61.7156 27.1961 64.1736 27.242C66.2288 27.2878 68.1462 26.2169 68.1462 24.6055C68.1462 23.0858 66.8968 22.4636 63.7708 22.2851C59.6197 21.974 54.6577 20.4544 54.6577 15.4516C54.6577 10.4489 59.9256 8.57227 63.9492 8.57227C67.3864 8.57227 69.977 9.24032 72.5217 11.4739L69.4874 15.0488H69.4823Z" fill="#2C323F"/>
<path d="M84.7147 2.99316V9.24529H90.7883V13.9318H84.6688V23.4426C84.6688 25.5437 85.8315 26.5687 87.5246 26.5687C88.3711 26.5687 89.3553 26.2984 90.1611 25.9006L91.6808 30.5464C90.1203 31.1736 88.825 31.4388 87.1727 31.4847C82.3944 31.6632 79.2683 28.94 79.2683 23.4477V13.9369H75.158V9.25039H79.2683V3.57962L84.7147 2.99826V2.99316Z" fill="#2C323F"/>
<path d="M112.314 9.19993H117.541V31.215H112.406L112.141 27.9971C110.891 30.5877 107.449 31.8371 104.996 31.883C98.4737 31.9289 93.6546 27.9104 93.6546 20.1845C93.6546 12.4586 98.7032 8.61857 105.134 8.66447C108.081 8.66447 110.896 10.0465 112.146 12.2393L112.324 9.20503L112.314 9.19993ZM99.0959 20.1845C99.0959 24.3815 101.998 26.8854 105.618 26.8854C114.191 26.8854 114.191 13.5346 105.618 13.5346C102.003 13.5346 99.0959 15.9926 99.0959 20.1896V20.1845Z" fill="#2C323F"/>
<path d="M141.519 28.4047C138.975 30.9035 136.292 31.8877 133.033 31.8877C126.649 31.8877 121.335 28.0477 121.335 20.23C121.335 12.4123 126.649 8.57227 133.033 8.57227C136.16 8.57227 138.572 9.4647 140.984 11.8309L137.547 15.4466C136.251 14.2838 134.645 13.7025 133.125 13.7025C129.464 13.7025 126.781 16.3798 126.781 20.2249C126.781 24.4219 129.637 26.6555 133.033 26.6555C134.778 26.6555 136.517 26.1659 137.858 24.8247L141.519 28.3996V28.4047Z" fill="#2C323F"/>
<path d="M149.246 0H143.799V31.2147H149.246V0Z" fill="#2C323F"/>
<path d="M161.877 6.23145L149.245 18.8632L161.877 31.4949L165.742 27.6294L156.976 18.8632L165.742 10.097L161.877 6.23145Z" fill="#2C323F"/>
<path d="M166.553 10.0921L175.319 18.8583L166.553 27.6245L170.418 31.49L183.05 18.8583L170.418 6.22656L166.553 10.0921Z" fill="#2BACE2"/>
<path d="M170.419 6.22521L166.553 10.0908L175.319 18.8569L179.185 14.9913L170.419 6.22521Z" fill="url(#paint0_linear_1868_4965)"/>
<defs>
<linearGradient id="paint0_linear_1868_4965" x1="168.381" y1="8.06171" x2="176.943" y2="16.6189" gradientUnits="userSpaceOnUse">
<stop offset="0.42" stop-color="#2BACE2"/>
<stop offset="1" stop-color="#066197"/>
</linearGradient>
</defs>
</svg>
